<svg xmlns="http://www.w3.org/2000/svg" width="3701" height="1138" viewBox="0 0 3701 1138">
<g fill="#763424" shape-rendering="geometricPrecision">
<path d="M 373 -878 C 205 -881 76 -748 74 -570 C 73 -510 86 -457 110 -411 C 77 -328 56 -243 55 -165 C 52 -11 128 94 243 96 C 377 98 495 -42 555 -243 C 610 -261 659 -289 697 -318 C 717 -333 731 -348 731 -355 C 731 -358 727 -365 722 -370 C 671 -349 621 -327 573 -312 C 588 -380 596 -454 597 -530 C 599 -654 579 -744 537 -801 C 544 -804 550 -806 557 -808 C 584 -816 598 -827 598 -841 C 598 -857 582 -868 561 -868 C 549 -868 530 -864 509 -857 L 486 -848 C 455 -867 417 -877 373 -878 Z M 152 -502 C 146 -527 143 -551 143 -572 C 143 -711 267 -820 383 -818 C 396 -818 409 -817 420 -814 C 316 -748 220 -631 152 -502 Z M 199 -399 C 259 -546 360 -681 489 -773 C 522 -736 539 -677 539 -598 L 539 -580 C 539 -484 523 -384 497 -293 C 477 -290 457 -289 438 -289 C 318 -292 243 -339 199 -399 Z M 173 -327 C 241 -263 339 -227 451 -226 C 459 -226 467 -226 475 -227 C 419 -74 335 39 255 37 C 190 35 144 -43 145 -149 C 146 -207 155 -268 173 -327 Z M 173 -327 " transform="translate(0 950)"/>
<path d="M 138 -558 C 58 -558 34 -286 34 -223 C 34 -198 36 -153 70 -153 C 126 -153 156 -205 171 -252 C 183 -291 248 -508 281 -512 C 290 -498 290 -467 290 -450 C 290 -387 284 -325 284 -262 C 284 -239 283 -190 317 -190 C 367 -190 451 -461 495 -468 C 500 -455 501 -442 501 -429 C 501 -354 480 -282 480 -207 C 480 -174 484 -110 530 -110 C 573 -110 715 -315 721 -360 C 717 -366 709 -370 702 -370 C 688 -370 584 -204 557 -200 C 554 -202 553 -206 553 -208 C 553 -235 564 -266 570 -293 C 582 -347 594 -403 594 -459 C 594 -495 576 -548 532 -548 C 454 -548 389 -410 360 -350 C 361 -391 368 -432 368 -474 C 368 -514 364 -592 308 -592 C 225 -592 155 -385 128 -320 C 134 -386 164 -449 164 -516 C 164 -536 165 -558 138 -558 Z M 138 -558 " transform="translate(650 950)"/>
<path d="M 289 -60 C 367 -60 501 -289 501 -362 L 501 -368 C 499 -369 494 -370 492 -370 C 466 -370 345 -156 334 -156 C 325 -156 328 -172 328 -178 C 328 -242 392 -333 392 -424 C 392 -469 367 -556 310 -556 C 231 -556 155 -359 129 -296 C 134 -348 146 -401 146 -453 C 146 -475 143 -522 112 -522 C 52 -522 35 -298 35 -256 C 35 -229 40 -126 82 -126 C 154 -126 235 -476 294 -476 C 312 -476 313 -445 313 -433 C 313 -360 251 -239 251 -134 C 251 -110 255 -60 289 -60 Z M 289 -60 " transform="translate(1290 950)"/>
<path d="M 141 -540 C 175 -540 192 -579 192 -608 C 192 -628 185 -654 160 -654 C 119 -654 103 -618 103 -587 C 103 -566 118 -540 141 -540 Z M 102 -140 C 163 -140 284 -305 284 -355 C 284 -364 282 -370 272 -370 C 235 -370 156 -210 128 -210 C 113 -210 112 -233 112 -243 C 112 -365 160 -410 160 -454 C 160 -480 145 -486 121 -486 C 69 -486 35 -356 35 -271 C 35 -229 45 -140 102 -140 Z M 102 -140 " transform="translate(1710 950)"/>
<path d="M 430 -490 C 421 -391 400 78 542 78 C 685 78 819 -460 819 -727 C 819 -750 823 -802 815 -846 C 812 -863 802 -884 787 -884 C 777 -884 753 -873 753 -844 C 753 -800 752 -746 749 -686 C 735 -446 602 0 554 0 C 484 0 523 -473 527 -533 C 528 -572 541 -674 531 -705 C 526 -718 517 -730 501 -730 C 484 -730 470 -720 460 -707 C 399 -631 311 -309 239 -187 C 234 -179 220 -145 210 -145 C 151 -145 188 -465 207 -577 C 216 -630 236 -714 271 -795 C 286 -829 293 -883 237 -883 C 150 -883 104 -583 94 -517 C 79 -420 45 -50 194 -50 C 278 -50 411 -431 430 -490 Z M 430 -490 " transform="translate(1910 950)"/>
<path d="M 705 -590 C 705 -425 601 -250 601 -78 C 601 22 662 69 716 69 C 860 69 957 -257 984 -347 C 989 -362 982 -367 965 -367 C 951 -367 949 -363 944 -350 C 899 -242 802 0 742 0 C 727 0 700 -14 700 -71 C 700 -238 802 -371 802 -569 C 802 -620 792 -696 721 -696 C 627 -696 515 -555 467 -452 C 483 -517 518 -640 518 -715 C 518 -784 489 -830 445 -830 C 325 -830 180 -457 134 -359 C 155 -443 226 -691 226 -756 C 226 -791 207 -822 185 -822 C 154 -822 120 -757 92 -642 C 75 -575 46 -429 27 -312 C 11 -213 1 -167 1 -123 C 1 -96 14 -92 32 -92 C 54 -92 70 -98 85 -112 C 126 -151 129 -227 150 -288 C 192 -409 367 -726 406 -726 C 415 -726 415 -709 415 -706 C 415 -590 327 -378 327 -236 C 327 -236 327 -207 352 -207 C 363 -207 377 -212 389 -221 C 413 -239 418 -263 432 -298 C 490 -448 632 -622 687 -622 C 706 -622 705 -605 705 -590 Z M 705 -590 " transform="translate(2715 950)"/>
</g>
</svg>
